<svg width="35" height="42" viewBox="0 0 35 42" fill="none" xmlns="http://www.w3.org/2000/svg">
<path d="M34.875 21C34.8763 21.5305 34.7403 22.0523 34.4802 22.5147C34.22 22.9771 33.8447 23.3643 33.3906 23.6387L5.25 40.8535C4.77556 41.144 4.23216 41.3026 3.67593 41.3129C3.1197 41.3232 2.57081 41.1849 2.08594 40.9121C1.60568 40.6436 1.20562 40.252 0.926883 39.7776C0.648147 39.3032 0.500802 38.7631 0.5 38.2129V3.78711C0.500802 3.23688 0.648147 2.6968 0.926883 2.2224C1.20562 1.748 1.60568 1.35641 2.08594 1.08789C2.57081 0.815132 3.1197 0.676759 3.67593 0.687059C4.23216 0.69736 4.77556 0.855961 5.25 1.14648L33.3906 18.3613C33.8447 18.6357 34.22 19.0229 34.4802 19.4853C34.7403 19.9477 34.8763 20.4695 34.875 21Z" fill="white"/>
</svg>
