<svg width="50" height="50" viewBox="0 0 50 50" fill="none" xmlns="http://www.w3.org/2000/svg">
<g clip-path="url(#clip0_347_1348)">
<path d="M25 0C18.3711 0 12.0078 2.63555 7.32422 7.32227C2.63579 12.0108 0.00129871 18.3695 0 25C0 31.6277 2.63672 37.991 7.32422 42.6777C12.0078 47.3645 18.3711 50 25 50C31.6289 50 37.9922 47.3645 42.6758 42.6777C47.3633 37.991 50 31.6277 50 25C50 18.3723 47.3633 12.009 42.6758 7.32227C37.9922 2.63555 31.6289 0 25 0Z" fill="url(#paint0_linear_347_1348)"/>
<path d="M11.3172 24.7376C18.6063 21.5626 23.4657 19.4692 25.8954 18.4579C32.8407 15.57 34.2821 15.0684 35.2235 15.0514C35.4305 15.0481 35.8915 15.0993 36.1922 15.3424C36.4422 15.5475 36.5125 15.8249 36.5477 16.0196C36.579 16.2141 36.6219 16.6575 36.5868 17.0036C36.2118 20.9567 34.5829 30.5497 33.7547 34.9774C33.4071 36.8508 32.7157 37.479 32.0477 37.5403C30.5946 37.6739 29.493 36.5809 28.0868 35.6594C25.8876 34.2168 24.6454 33.3192 22.5086 31.9118C20.0399 30.2852 21.6415 29.3911 23.0477 27.9301C23.4149 27.5477 29.8133 21.7293 29.9344 21.2016C29.95 21.1356 29.9657 20.8895 29.8172 20.7598C29.6727 20.6297 29.4579 20.6743 29.3016 20.7094C29.079 20.7594 25.5672 23.0829 18.7547 27.6793C17.7586 28.3645 16.8563 28.6985 16.0438 28.6809C15.1532 28.6618 13.4344 28.1762 12.1571 27.7614C10.5946 27.2524 9.34849 26.9833 9.45786 26.1188C9.51255 25.6688 10.1336 25.2083 11.3172 24.7376Z" fill="white"/>
</g>
<defs>
<linearGradient id="paint0_linear_347_1348" x1="2500" y1="0" x2="2500" y2="5000" gradientUnits="userSpaceOnUse">
<stop stop-color="#2AABEE"/>
<stop offset="1" stop-color="#229ED9"/>
</linearGradient>
<clipPath id="clip0_347_1348">
<rect width="50" height="50" fill="white"/>
</clipPath>
</defs>
</svg>
