<svg width="50" height="50" viewBox="0 0 50 50" fill="none" xmlns="http://www.w3.org/2000/svg">
<rect x="7.83252" y="7.84302" width="34.3137" height="34.3137" rx="17.1569" fill="white"/>
<path d="M24.9995 1.00098C11.7445 1.00098 0.999512 11.746 0.999512 25.001C0.999512 38.256 11.7445 49.001 24.9995 49.001C38.2545 49.001 48.9995 38.256 48.9995 25.001C48.9995 11.746 38.2545 1.00098 24.9995 1.00098ZM34.2295 28.0785C34.2295 28.0785 36.352 30.1735 36.8745 31.146C36.8895 31.166 36.897 31.186 36.902 31.196C37.1145 31.5535 37.1645 31.831 37.0595 32.0385C36.8845 32.3835 36.2845 32.5535 36.0795 32.5685H32.3295C32.0695 32.5685 31.5245 32.501 30.8645 32.046C30.357 31.691 29.857 31.1085 29.3695 30.541C28.642 29.696 28.012 28.966 27.377 28.966C27.2964 28.9658 27.2162 28.9785 27.1395 29.0035C26.6595 29.1585 26.0445 29.8435 26.0445 31.6685C26.0445 32.2385 25.5945 32.566 25.277 32.566H23.5595C22.9745 32.566 19.927 32.361 17.227 29.5135C13.922 26.026 10.947 19.031 10.922 18.966C10.7345 18.5135 11.122 18.271 11.5445 18.271H15.332C15.837 18.271 16.002 18.5785 16.117 18.851C16.252 19.1685 16.747 20.431 17.5595 21.851C18.877 24.166 19.6845 25.106 20.332 25.106C20.4534 25.1045 20.5727 25.0737 20.6795 25.016C21.5245 24.546 21.367 21.5335 21.3295 20.9085C21.3295 20.791 21.327 19.561 20.8945 18.971C20.5845 18.5435 20.057 18.381 19.737 18.321C19.8665 18.1423 20.0372 17.9973 20.2345 17.8985C20.8145 17.6085 21.8595 17.566 22.897 17.566H23.4745C24.5995 17.581 24.8895 17.6535 25.297 17.756C26.122 17.9535 26.1395 18.486 26.067 20.3085C26.0445 20.826 26.022 21.411 26.022 22.101C26.022 22.251 26.0145 22.411 26.0145 22.581C25.9895 23.5085 25.9595 24.561 26.6145 24.9935C26.6999 25.047 26.7987 25.0756 26.8995 25.076C27.127 25.076 27.812 25.076 29.667 21.8935C30.2391 20.8691 30.7362 19.8047 31.1545 18.7085C31.192 18.6435 31.302 18.4435 31.432 18.366C31.528 18.3171 31.6343 18.2922 31.742 18.2935H36.1945C36.6795 18.2935 37.012 18.366 37.0745 18.5535C37.1845 18.851 37.0545 19.7585 35.022 22.511L34.1145 23.7085C32.272 26.1235 32.272 26.246 34.2295 28.0785Z" fill="#0029FF"/>
</svg>
