<svg width="60" height="50" viewBox="0 0 60 50" fill="none" xmlns="http://www.w3.org/2000/svg">
<g clip-path="url(#clip0_347_1354)">
<path d="M58.6749 7.79861C58.3307 6.29127 57.6594 4.91707 56.7278 3.81286C55.7962 2.70864 54.6367 1.91295 53.3649 1.505C48.7088 0 29.9696 0 29.9696 0C29.9696 0 11.2294 0.0455554 6.57333 1.55056C5.30149 1.95853 4.14202 2.75427 3.21038 3.85853C2.27874 4.96279 1.60744 6.33705 1.26333 7.84444C-0.145033 17.6494 -0.691361 32.59 1.302 42.0028C1.64615 43.5101 2.31747 44.8843 3.2491 45.9885C4.18074 47.0927 5.34019 47.8884 6.612 48.2964C11.2681 49.8014 30.0078 49.8014 30.0078 49.8014C30.0078 49.8014 48.7472 49.8014 53.4031 48.2964C54.6749 47.8885 55.8344 47.0928 56.7661 45.9886C57.6978 44.8844 58.3692 43.5102 58.7133 42.0028C60.1988 32.1839 60.6565 17.2525 58.6749 7.79861Z" fill="#FF0000"/>
<path d="M24.0054 35.5767L39.551 24.9051L24.0054 14.2334V35.5767Z" fill="white"/>
</g>
<defs>
<clipPath id="clip0_347_1354">
<rect width="60" height="50" fill="white"/>
</clipPath>
</defs>
</svg>
