<svg width="49" height="49" viewBox="0 0 49 49" fill="none" xmlns="http://www.w3.org/2000/svg">
<rect x="1" y="1" width="47" height="47" rx="23.5" fill="#090520"/>
<rect x="1" y="1" width="47" height="47" rx="23.5" stroke="white" stroke-width="2"/>
<path d="M15.6044 20.314V28.6861C15.6044 28.9636 15.4941 29.2298 15.2979 29.426C15.1016 29.6223 14.8354 29.7326 14.5579 29.7326H13.5114C13.2338 29.7326 12.9676 29.6223 12.7714 29.426C12.5751 29.2298 12.4648 28.9636 12.4648 28.6861V20.314C12.4648 20.0364 12.5751 19.7702 12.7714 19.574C12.9676 19.3777 13.2338 19.2674 13.5114 19.2674H14.5579C14.8354 19.2674 15.1016 19.3777 15.2979 19.574C15.4941 19.7702 15.6044 20.0364 15.6044 20.314ZM19.7904 10.8954H18.7439C18.4664 10.8954 18.2002 11.0056 18.0039 11.2019C17.8077 11.3981 17.6974 11.6643 17.6974 11.9419V37.0581C17.6974 37.3357 17.8077 37.6019 18.0039 37.7981C18.2002 37.9944 18.4664 38.1047 18.7439 38.1047H19.7904C20.068 38.1047 20.3342 37.9944 20.5304 37.7981C20.7267 37.6019 20.8369 37.3357 20.8369 37.0581V11.9419C20.8369 11.6643 20.7267 11.3981 20.5304 11.2019C20.3342 11.0056 20.068 10.8954 19.7904 10.8954ZM25.023 15.0814H23.9765C23.6989 15.0814 23.4327 15.1917 23.2365 15.3879C23.0402 15.5842 22.93 15.8504 22.93 16.1279V32.8721C22.93 33.1496 23.0402 33.4158 23.2365 33.6121C23.4327 33.8084 23.6989 33.9186 23.9765 33.9186H25.023C25.3005 33.9186 25.5667 33.8084 25.763 33.6121C25.9592 33.4158 26.0695 33.1496 26.0695 32.8721V16.1279C26.0695 15.8504 25.9592 15.5842 25.763 15.3879C25.5667 15.1917 25.3005 15.0814 25.023 15.0814ZM30.2555 19.2674H29.209C28.9315 19.2674 28.6653 19.3777 28.469 19.574C28.2728 19.7702 28.1625 20.0364 28.1625 20.314V28.6861C28.1625 28.9636 28.2728 29.2298 28.469 29.426C28.6653 29.6223 28.9315 29.7326 29.209 29.7326H30.2555C30.5331 29.7326 30.7993 29.6223 30.9955 29.426C31.1918 29.2298 31.3021 28.9636 31.3021 28.6861V20.314C31.3021 20.0364 31.1918 19.7702 30.9955 19.574C30.7993 19.3777 30.5331 19.2674 30.2555 19.2674ZM35.4881 17.1744H34.4416C34.164 17.1744 33.8979 17.2847 33.7016 17.4809C33.5053 17.6772 33.3951 17.9434 33.3951 18.2209V30.7791C33.3951 31.0566 33.5053 31.3228 33.7016 31.5191C33.8979 31.7153 34.164 31.8256 34.4416 31.8256H35.4881C35.7657 31.8256 36.0318 31.7153 36.2281 31.5191C36.4244 31.3228 36.5346 31.0566 36.5346 30.7791V18.2209C36.5346 17.9434 36.4244 17.6772 36.2281 17.4809C36.0318 17.2847 35.7657 17.1744 35.4881 17.1744Z" fill="white"/>
</svg>
