<svg width="49" height="49" viewBox="0 0 49 49" fill="none" xmlns="http://www.w3.org/2000/svg">
<rect x="1" y="1" width="47" height="47" rx="23.5" fill="#090520"/>
<rect x="1" y="1" width="47" height="47" rx="23.5" stroke="white" stroke-width="2"/>
<path d="M36.5511 16.2331L24.8119 12.3219C24.6111 12.255 24.394 12.255 24.1932 12.3219L12.454 16.2331C12.2593 16.298 12.0898 16.4225 11.9698 16.589C11.8497 16.7555 11.7851 16.9555 11.7852 17.1608V26.9387C11.7852 27.198 11.8882 27.4467 12.0717 27.6301C12.2551 27.8134 12.504 27.9165 12.7634 27.9165C13.0229 27.9165 13.2717 27.8134 13.4552 27.6301C13.6386 27.4467 13.7417 27.198 13.7417 26.9387V18.5175L17.8492 19.8851C16.7578 21.6474 16.4108 23.7704 16.8843 25.7882C17.3577 27.8059 18.6129 29.5534 20.3743 30.6469C18.1732 31.5098 16.2705 33.0706 14.8789 35.2047C14.8065 35.3122 14.7563 35.433 14.731 35.5601C14.7058 35.6872 14.7061 35.818 14.7319 35.945C14.7576 36.072 14.8084 36.1926 14.8813 36.2998C14.9541 36.407 15.0475 36.4987 15.1561 36.5695C15.2647 36.6403 15.3863 36.6888 15.5138 36.7122C15.6413 36.7356 15.7722 36.7334 15.8989 36.7058C16.0256 36.6783 16.1455 36.6258 16.2517 36.5514C16.3579 36.4771 16.4482 36.3824 16.5175 36.2729C18.3603 33.4471 21.2706 31.8276 24.5025 31.8276C27.7345 31.8276 30.6448 33.4471 32.4876 36.2729C32.6311 36.486 32.8527 36.6342 33.1046 36.6853C33.3565 36.7364 33.6184 36.6864 33.8337 36.546C34.049 36.4057 34.2003 36.1863 34.2551 35.9353C34.3098 35.6843 34.2635 35.4218 34.1262 35.2047C32.7346 33.0706 30.8246 31.5098 28.6308 30.6469C30.3905 29.5535 31.6445 27.8071 32.1179 25.7908C32.5912 23.7746 32.2453 21.653 31.1559 19.8913L36.5511 18.0946C36.7459 18.0297 36.9154 17.9052 37.0354 17.7387C37.1555 17.5722 37.2202 17.3721 37.2202 17.1669C37.2202 16.9616 37.1555 16.7616 37.0354 16.5951C36.9154 16.4286 36.7459 16.3041 36.5511 16.2392V16.2331ZM30.3721 24.0053C30.3724 24.9328 30.1526 25.8472 29.7309 26.6733C29.3091 27.4995 28.6974 28.214 27.9459 28.7581C27.1945 29.3022 26.3246 29.6605 25.4078 29.8035C24.4909 29.9466 23.5532 29.8703 22.6715 29.5809C21.7899 29.2916 20.9895 28.7975 20.3359 28.1391C19.6823 27.4806 19.1942 26.6767 18.9117 25.7933C18.6291 24.9098 18.5602 23.972 18.7105 23.0567C18.8608 22.1415 19.2261 21.2749 19.7763 20.528L24.1932 21.9947C24.394 22.0616 24.6111 22.0616 24.8119 21.9947L29.2288 20.528C29.972 21.5352 30.3727 22.7539 30.3721 24.0053Z" fill="white"/>
</svg>
