<svg width="49" height="49" viewBox="0 0 49 49" fill="none" xmlns="http://www.w3.org/2000/svg">
<rect x="1" y="1" width="47" height="47" rx="23.5" fill="#090520"/>
<rect x="1" y="1" width="47" height="47" rx="23.5" stroke="white" stroke-width="2"/>
<path d="M36.5155 17.9584C36.409 17.546 36.205 17.1646 35.9204 16.8456C35.6357 16.5267 35.2784 16.2793 34.8781 16.1239C31.0044 14.6428 24.839 14.6563 24.5 14.6563C24.161 14.6563 17.9956 14.6428 14.1219 16.1239C13.7216 16.2793 13.3643 16.5267 13.0796 16.8456C12.795 17.1646 12.5909 17.546 12.4845 17.9584C12.1918 19.0748 11.8438 21.1151 11.8438 24.5C11.8438 27.8849 12.1918 29.9252 12.4845 31.0416C12.5908 31.4542 12.7947 31.8358 13.0794 32.155C13.3641 32.4742 13.7214 32.7217 14.1219 32.8773C17.8329 34.2945 23.6412 34.3438 24.4254 34.3438H24.5746C25.3588 34.3438 31.1705 34.2945 34.8781 32.8773C35.2786 32.7217 35.6359 32.4742 35.9206 32.155C36.2053 31.8358 36.4092 31.4542 36.5155 31.0416C36.8082 29.923 37.1562 27.8849 37.1562 24.5C37.1562 21.1151 36.8082 19.0748 36.5155 17.9584ZM28.3669 24.8725L22.9428 28.452C22.8747 28.497 22.7956 28.5228 22.7138 28.5268C22.6321 28.5307 22.5508 28.5125 22.4786 28.4743C22.4065 28.4361 22.3461 28.3791 22.3041 28.3096C22.2621 28.2401 22.2399 28.1606 22.24 28.0795V20.9205C22.2399 20.8394 22.2621 20.7599 22.3041 20.6904C22.3461 20.6209 22.4065 20.5639 22.4786 20.5257C22.5508 20.4875 22.6321 20.4693 22.7138 20.4732C22.7956 20.4772 22.8747 20.503 22.9428 20.548L28.3669 24.1275C28.4289 24.1684 28.4798 24.2237 28.5149 24.2887C28.5501 24.3537 28.5685 24.4263 28.5685 24.5C28.5685 24.5737 28.5501 24.6463 28.5149 24.7113C28.4798 24.7763 28.4289 24.8317 28.3669 24.8725Z" fill="white"/>
</svg>
