<svg width="49" height="49" viewBox="0 0 49 49" fill="none" xmlns="http://www.w3.org/2000/svg">
<rect x="1" y="1" width="47" height="47" rx="23.5" fill="#090520"/>
<rect x="1" y="1" width="47" height="47" rx="23.5" stroke="white" stroke-width="2"/>
<path d="M36.8662 19.4295L29.4446 12.1282C29.3527 12.0376 29.2436 11.9658 29.1234 11.9168C29.0033 11.8679 28.8746 11.8426 28.7445 11.8426C28.6145 11.8426 28.4857 11.8679 28.3656 11.9168C28.2454 11.9658 28.1363 12.0376 28.0444 12.1282L12.0596 27.854C11.021 28.8758 10.4375 30.2616 10.4375 31.7066C10.4375 33.1517 11.021 34.5375 12.0596 35.5593C13.0982 36.5811 14.5069 37.1551 15.9757 37.1551C17.4445 37.1551 18.8532 36.5811 19.8918 35.5593L33.7318 21.9436L36.479 21.0431C36.6391 20.9907 36.783 20.8989 36.8969 20.7763C37.0108 20.6538 37.0909 20.5047 37.1297 20.3431C37.1685 20.1815 37.1647 20.0129 37.1186 19.8532C37.0724 19.6935 36.9855 19.548 36.8662 19.4307V19.4295ZM32.8845 20.1681C32.7387 20.2158 32.6061 20.2962 32.4973 20.403L27.6028 25.2182C26.5552 25.5711 24.9125 25.705 22.7702 24.6098C21.459 23.9356 20.274 23.6363 19.2375 23.5474L28.7445 14.1932L34.3342 19.6923L32.8845 20.1681Z" fill="white"/>
</svg>
