<svg width="49" height="49" viewBox="0 0 49 49" fill="none" xmlns="http://www.w3.org/2000/svg">
<rect x="1" y="1" width="47" height="47" rx="23.5" fill="#090520"/>
<rect x="1" y="1" width="47" height="47" rx="23.5" stroke="white" stroke-width="2"/>
<path d="M29.3137 20.9845C29.3137 21.8189 29.0726 22.6345 28.6209 23.3283C28.1693 24.0221 27.5273 24.5628 26.7762 24.8821C26.0251 25.2014 25.1986 25.285 24.4012 25.1222C23.6038 24.9594 22.8714 24.5576 22.2965 23.9676C21.7216 23.3776 21.3301 22.6259 21.1715 21.8075C21.0129 20.9891 21.0943 20.1409 21.4054 19.37C21.7166 18.5991 22.2434 17.9402 22.9194 17.4767C23.5954 17.0131 24.3901 16.7657 25.2031 16.7657C26.2933 16.7657 27.3389 17.2102 28.1097 18.0013C28.8806 18.7925 29.3137 19.8656 29.3137 20.9845ZM38.5625 34.6955C38.5625 34.9752 38.4542 35.2435 38.2615 35.4413C38.0688 35.639 37.8074 35.7502 37.5349 35.7502H12.8714C12.5988 35.7502 12.3375 35.639 12.1447 35.4413C11.952 35.2435 11.8438 34.9752 11.8438 34.6955C11.8438 34.4158 11.952 34.1475 12.1447 33.9497C12.3375 33.7519 12.5988 33.6408 12.8714 33.6408H24.1755V31.4787C21.5523 31.2081 19.1307 29.9131 17.4117 27.8616C15.6926 25.8101 14.8076 23.159 14.9396 20.4566C15.0716 17.7542 16.2105 15.2072 18.1208 13.3424C20.0311 11.4776 22.5667 10.4377 25.2031 10.4377C27.8395 10.4377 30.3751 11.4776 32.2854 13.3424C34.1958 15.2072 35.3347 17.7542 35.4667 20.4566C35.5987 23.159 34.7136 25.8101 32.9946 27.8616C31.2755 29.9131 28.854 31.2081 26.2308 31.4787V33.6408H37.5349C37.8074 33.6408 38.0688 33.7519 38.2615 33.9497C38.4542 34.1475 38.5625 34.4158 38.5625 34.6955ZM25.2031 27.3126C26.4226 27.3126 27.6147 26.9415 28.6287 26.2461C29.6427 25.5508 30.433 24.5625 30.8996 23.4061C31.3663 22.2498 31.4884 20.9774 31.2505 19.7499C31.0126 18.5224 30.4254 17.3948 29.5631 16.5098C28.7007 15.6248 27.6021 15.0221 26.406 14.7779C25.21 14.5337 23.9702 14.659 22.8436 15.138C21.7169 15.617 20.7539 16.4281 20.0764 17.4687C19.3989 18.5094 19.0373 19.7329 19.0373 20.9845C19.039 22.6623 19.6891 24.2708 20.8451 25.4572C22.001 26.6436 23.5684 27.3109 25.2031 27.3126Z" fill="white"/>
</svg>
