<svg width="49" height="49" viewBox="0 0 49 49" fill="none" xmlns="http://www.w3.org/2000/svg">
<rect x="1" y="1" width="47" height="47" rx="23.5" fill="#090520"/>
<rect x="1" y="1" width="47" height="47" rx="23.5" stroke="white" stroke-width="2"/>
<path d="M32.8992 13.22C32.8732 13.1977 32.846 13.1768 32.8178 13.1574C32.789 13.1374 32.759 13.1186 32.7289 13.1011C29.9421 11.0866 26.4707 10.2584 23.0746 10.7976C19.6785 11.3369 16.6344 13.1997 14.6087 15.9783C12.5829 18.7569 11.7406 22.2249 12.266 25.6232C12.7915 29.0215 14.6419 32.0731 17.4122 34.1101C20.1826 36.1472 23.6472 37.0036 27.0475 36.492C30.4479 35.9803 33.5071 34.1423 35.5553 31.3803C37.6036 28.6182 38.4741 25.1571 37.9763 21.7547C37.4785 18.3523 35.6529 15.2857 32.8992 13.2262V13.22ZM25.3508 26.8258C24.7566 26.8258 24.1758 26.6496 23.6817 26.3195C23.1877 25.9894 22.8026 25.5201 22.5752 24.9712C22.3478 24.4222 22.2883 23.8181 22.4042 23.2354C22.5202 22.6526 22.8063 22.1173 23.2265 21.6971C23.6466 21.2769 24.1819 20.9908 24.7647 20.8749C25.3475 20.759 25.9516 20.8185 26.5005 21.0458C27.0495 21.2732 27.5187 21.6583 27.8488 22.1524C28.179 22.6464 28.3552 23.2273 28.3552 23.8215C28.3552 24.6183 28.0386 25.3824 27.4752 25.9458C26.9118 26.5093 26.1476 26.8258 25.3508 26.8258ZM36.3667 23.8215C36.3667 24.1307 36.3529 24.4374 36.3279 24.7403L30.358 23.6863C30.3243 22.4518 29.8336 21.2737 28.9811 20.3803L32.4586 15.4144C33.6831 16.4464 34.6674 17.7335 35.3424 19.1857C36.0175 20.6379 36.3671 22.22 36.3667 23.8215Z" fill="white"/>
</svg>
