<svg width="49" height="49" viewBox="0 0 49 49" fill="none" xmlns="http://www.w3.org/2000/svg">
<rect x="1" y="1" width="47" height="47" rx="23.5" fill="#090520"/>
<rect x="1" y="1" width="47" height="47" rx="23.5" stroke="white" stroke-width="2"/>
<path d="M32.1487 34.0337C32.2767 34.1846 32.3593 34.3694 32.3866 34.5663C32.4139 34.7632 32.3847 34.9639 32.3027 35.1446C32.2206 35.3252 32.089 35.4783 31.9235 35.5856C31.758 35.6929 31.5656 35.75 31.369 35.75H19.0373C18.8407 35.75 18.6482 35.6929 18.4827 35.5856C18.3173 35.4783 18.1857 35.3252 18.1036 35.1446C18.0215 34.9639 17.9924 34.7632 18.0197 34.5663C18.047 34.3694 18.1295 34.1846 18.2575 34.0337L24.4234 26.7579C24.5199 26.644 24.6396 26.5526 24.7743 26.4899C24.909 26.4272 25.0555 26.3948 25.2038 26.3948C25.352 26.3948 25.4986 26.4272 25.6333 26.4899C25.768 26.5526 25.8877 26.644 25.9841 26.7579L32.1487 34.0337ZM35.4796 11.8438H14.9267C14.109 11.8438 13.3249 12.1723 12.7467 12.7571C12.1686 13.3418 11.8438 14.135 11.8438 14.962V29.5136C11.8438 30.3406 12.1686 31.1337 12.7467 31.7185C13.3249 32.3033 14.109 32.6318 14.9267 32.6318H16.5015C16.5749 32.6311 16.6472 32.6144 16.7137 32.5831C16.7802 32.5517 16.8392 32.5063 16.8869 32.4499L22.8575 25.4053C23.147 25.0639 23.506 24.7899 23.91 24.602C24.3139 24.4141 24.7533 24.3168 25.198 24.3168C25.6426 24.3168 26.082 24.4141 26.486 24.602C26.89 24.7899 27.249 25.0639 27.5384 25.4053L33.5142 32.4499C33.5619 32.5063 33.6209 32.5517 33.6874 32.5831C33.7539 32.6144 33.8262 32.6311 33.8996 32.6318H35.4796C36.2972 32.6318 37.0814 32.3033 37.6595 31.7185C38.2377 31.1337 38.5625 30.3406 38.5625 29.5136V14.962C38.5625 14.135 38.2377 13.3418 37.6595 12.7571C37.0814 12.1723 36.2972 11.8438 35.4796 11.8438Z" fill="white"/>
</svg>
