<svg width="49" height="49" viewBox="0 0 49 49" fill="none" xmlns="http://www.w3.org/2000/svg">
<rect x="1" y="1" width="47" height="47" rx="23.5" fill="#090520"/>
<rect x="1" y="1" width="47" height="47" rx="23.5" stroke="white" stroke-width="2"/>
<path d="M35.5661 36.3567H30.3457C33.0681 34.6407 35.0795 31.999 36.0101 28.9173C36.9407 25.8357 36.7278 22.5216 35.4105 19.5845C34.0933 16.6475 31.7603 14.2851 28.8408 12.9319C25.9213 11.5787 22.6115 11.3257 19.5204 12.2196C16.4293 13.1134 13.7648 15.0938 12.0169 17.7966C10.2691 20.4994 9.55547 23.7428 10.0074 26.9301C10.4593 30.1173 12.0464 33.0341 14.4766 35.1439C16.9069 37.2537 20.0169 38.4146 23.2345 38.413H35.5661C35.8387 38.413 36.1 38.3047 36.2928 38.1119C36.4855 37.9191 36.5938 37.6576 36.5938 37.3849C36.5938 37.1122 36.4855 36.8507 36.2928 36.6579C36.1 36.4651 35.8387 36.3567 35.5661 36.3567ZM17.0686 27.6176C16.5605 27.6176 16.0638 27.4668 15.6413 27.1844C15.2188 26.902 14.8896 26.5005 14.6951 26.0309C14.5007 25.5612 14.4498 25.0444 14.5489 24.5458C14.648 24.0472 14.8927 23.5892 15.252 23.2297C15.6113 22.8702 16.0691 22.6254 16.5674 22.5263C17.0658 22.4271 17.5824 22.478 18.0518 22.6725C18.5212 22.8671 18.9225 23.1965 19.2048 23.6192C19.4871 24.0419 19.6377 24.5389 19.6377 25.0472C19.6377 25.7289 19.3671 26.3827 18.8853 26.8647C18.4035 27.3468 17.75 27.6176 17.0686 27.6176ZM23.2345 33.7864C22.7263 33.7864 22.2296 33.6357 21.8072 33.3532C21.3847 33.0708 21.0554 32.6694 20.8609 32.1997C20.6665 31.73 20.6156 31.2132 20.7147 30.7146C20.8139 30.216 21.0586 29.758 21.4178 29.3985C21.7771 29.0391 22.2349 28.7943 22.7333 28.6951C23.2316 28.5959 23.7482 28.6468 24.2176 28.8414C24.6871 29.0359 25.0883 29.3654 25.3706 29.788C25.6529 30.2107 25.8036 30.7077 25.8036 31.2161C25.8036 31.8978 25.5329 32.5515 25.0511 33.0336C24.5693 33.5156 23.9158 33.7864 23.2345 33.7864ZM23.2345 21.4487C22.7263 21.4487 22.2296 21.298 21.8072 21.0156C21.3847 20.7331 21.0554 20.3317 20.8609 19.862C20.6665 19.3924 20.6156 18.8755 20.7147 18.3769C20.8139 17.8783 21.0586 17.4204 21.4178 17.0609C21.7771 16.7014 22.2349 16.4566 22.7333 16.3574C23.2316 16.2583 23.7482 16.3092 24.2176 16.5037C24.6871 16.6983 25.0883 17.0277 25.3706 17.4504C25.6529 17.8731 25.8036 18.37 25.8036 18.8784C25.8036 19.5601 25.5329 20.2139 25.0511 20.6959C24.5693 21.1779 23.9158 21.4487 23.2345 21.4487ZM26.8312 25.0472C26.8312 24.5389 26.9819 24.0419 27.2642 23.6192C27.5465 23.1965 27.9477 22.8671 28.4171 22.6725C28.8866 22.478 29.4031 22.4271 29.9015 22.5263C30.3999 22.6254 30.8576 22.8702 31.2169 23.2297C31.5762 23.5892 31.8209 24.0472 31.92 24.5458C32.0191 25.0444 31.9683 25.5612 31.7738 26.0309C31.5794 26.5005 31.2501 26.902 30.8276 27.1844C30.4051 27.4668 29.9084 27.6176 29.4003 27.6176C28.7189 27.6176 28.0655 27.3468 27.5837 26.8647C27.1019 26.3827 26.8312 25.7289 26.8312 25.0472Z" fill="white"/>
</svg>
