<svg width="49" height="49" viewBox="0 0 49 49" fill="none" xmlns="http://www.w3.org/2000/svg">
<rect x="1" y="1" width="47" height="47" rx="23.5" fill="#090520"/>
<rect x="1" y="1" width="47" height="47" rx="23.5" stroke="white" stroke-width="2"/>
<path d="M18.5938 23.7969V16.1629C18.5938 14.6445 19.216 13.1882 20.3237 12.1144C21.4313 11.0407 22.9336 10.4375 24.5 10.4375C26.0664 10.4375 27.5687 11.0407 28.6764 12.1144C29.784 13.1882 30.4062 14.6445 30.4062 16.1629V23.7969C30.4062 25.3154 29.784 26.7716 28.6764 27.8454C27.5687 28.9191 26.0664 29.5223 24.5 29.5223C22.9336 29.5223 21.4313 28.9191 20.3237 27.8454C19.216 26.7716 18.5938 25.3154 18.5938 23.7969ZM34.3438 23.7969C34.3438 23.5438 34.24 23.3011 34.0554 23.1221C33.8708 22.9432 33.6204 22.8426 33.3594 22.8426C33.0983 22.8426 32.8479 22.9432 32.6633 23.1221C32.4787 23.3011 32.375 23.5438 32.375 23.7969C32.375 25.8215 31.5453 27.7632 30.0685 29.1949C28.5916 30.6265 26.5886 31.4308 24.5 31.4308C22.4114 31.4308 20.4084 30.6265 18.9315 29.1949C17.4547 27.7632 16.625 25.8215 16.625 23.7969C16.625 23.5438 16.5213 23.3011 16.3367 23.1221C16.1521 22.9432 15.9017 22.8426 15.6406 22.8426C15.3796 22.8426 15.1292 22.9432 14.9446 23.1221C14.76 23.3011 14.6562 23.5438 14.6562 23.7969C14.6592 26.1617 15.5667 28.4414 17.2031 30.1951C18.8396 31.9489 21.0887 33.0522 23.5156 33.2916V36.202C23.5156 36.4551 23.6193 36.6978 23.8039 36.8768C23.9885 37.0557 24.2389 37.1562 24.5 37.1562C24.7611 37.1562 25.0115 37.0557 25.1961 36.8768C25.3807 36.6978 25.4844 36.4551 25.4844 36.202V33.2916C27.9113 33.0522 30.1604 31.9489 31.7969 30.1951C33.4333 28.4414 34.3408 26.1617 34.3438 23.7969Z" fill="white"/>
</svg>
