<svg width="49" height="49" viewBox="0 0 49 49" fill="none" xmlns="http://www.w3.org/2000/svg">
<rect x="1" y="1" width="47" height="47" rx="23.5" fill="#090520"/>
<rect x="1" y="1" width="47" height="47" rx="23.5" stroke="white" stroke-width="2"/>
<path d="M31.4374 16.5312V29.6562C31.4374 30.1535 31.2497 30.6304 30.9157 30.9821C30.5816 31.3337 30.1286 31.5312 29.6562 31.5312H13.625C13.1526 31.5312 12.6995 31.3337 12.3655 30.9821C12.0314 30.6304 11.8438 30.1535 11.8438 29.6562V16.5312C11.8438 16.034 12.0314 15.5571 12.3655 15.2054C12.6995 14.8538 13.1526 14.6562 13.625 14.6562H29.6562C30.1286 14.6562 30.5816 14.8538 30.9157 15.2054C31.2497 15.5571 31.4374 16.034 31.4374 16.5312ZM37.8944 16.5605C37.7688 16.5282 37.638 16.5242 37.5108 16.5488C37.3836 16.5735 37.2628 16.6262 37.1563 16.7035L33.4168 19.3273C33.3558 19.3702 33.3058 19.4282 33.2712 19.4963C33.2367 19.5644 33.2186 19.6404 33.2186 19.7176V26.4699C33.2186 26.5471 33.2367 26.6231 33.2712 26.6912C33.3058 26.7593 33.3558 26.8173 33.4168 26.8602L37.1775 29.4992C37.3182 29.5981 37.4828 29.6526 37.652 29.6566C37.8211 29.6605 37.9879 29.6137 38.1326 29.5215C38.2666 29.4319 38.3764 29.3075 38.4517 29.1604C38.5269 29.0133 38.565 28.8483 38.5624 28.6812V17.4688C38.5625 17.2608 38.4969 17.0588 38.376 16.8944C38.2551 16.73 38.0857 16.6125 37.8944 16.5605Z" fill="white"/>
</svg>
