<svg width="260" height="260" viewBox="0 0 260 260" fill="none" xmlns="http://www.w3.org/2000/svg">
<path d="M130 0C104.288 0 79.1543 7.62437 57.7759 21.909C36.3975 36.1935 19.7351 56.4968 9.89572 80.2512C0.056327 104.006 -2.51811 130.144 2.49797 155.362C7.51405 180.579 19.8953 203.743 38.0762 221.924C56.257 240.105 79.4208 252.486 104.638 257.502C129.856 262.518 155.995 259.944 179.749 250.104C203.503 240.265 223.807 223.603 238.091 202.224C252.376 180.846 260 155.712 260 130C259.964 95.533 246.256 62.4882 221.884 38.1163C197.512 13.7445 164.467 0.0363977 130 0ZM187.075 107.075L117.075 177.075C116.146 178.005 115.043 178.742 113.829 179.246C112.615 179.749 111.314 180.008 110 180.008C108.686 180.008 107.385 179.749 106.171 179.246C104.957 178.742 103.854 178.005 102.925 177.075L72.925 147.075C71.0486 145.199 69.9945 142.654 69.9945 140C69.9945 137.346 71.0486 134.801 72.925 132.925C74.8015 131.049 77.3464 129.994 80.0001 129.994C82.6537 129.994 85.1987 131.049 87.0751 132.925L110 155.863L172.925 92.925C173.854 91.9959 174.957 91.2589 176.171 90.7561C177.385 90.2532 178.686 89.9944 180 89.9944C181.314 89.9944 182.615 90.2532 183.829 90.7561C185.043 91.2589 186.146 91.9959 187.075 92.925C188.004 93.8541 188.741 94.9571 189.244 96.171C189.747 97.385 190.006 98.6861 190.006 100C190.006 101.314 189.747 102.615 189.244 103.829C188.741 105.043 188.004 106.146 187.075 107.075Z" fill="#34C439"/>
</svg>
